<svg width="141" height="30" viewBox="0 0 141 30" fill="none" xmlns="http://www.w3.org/2000/svg">
<path d="M14.6574 8.66316V23.606H10.5711V22.2004C9.66217 23.3371 8.33748 24.0233 6.51129 24.0233C2.94303 24.0233 0 20.587 0 16.1346C0 11.6821 2.94303 8.24414 6.51129 8.24414C8.32593 8.24414 9.69022 8.93206 10.5711 10.0588V8.66316H14.6574ZM10.5711 16.1346C10.5711 13.8926 9.20851 12.4888 7.32953 12.4888C5.45054 12.4888 4.08626 13.8926 4.08626 16.1346C4.08626 18.3765 5.44889 19.7804 7.32953 19.7804C9.21016 19.7804 10.5711 18.3897 10.5711 16.1346Z" fill="white" style="fill:white;fill-opacity:1;"/>
<path d="M31.6442 2.68457V23.6058H27.5579V22.2003C26.6506 23.3369 25.3242 24.0232 23.498 24.0232C19.9347 24.0232 16.9917 20.5869 16.9917 16.1344C16.9917 11.6819 19.9347 8.24399 23.498 8.24399C25.3127 8.24399 26.677 8.93191 27.5579 10.0586V2.68457H31.6442ZM27.5579 16.1344C27.5579 13.8925 26.1953 12.4886 24.3212 12.4886C22.4472 12.4886 21.078 13.8925 21.078 16.1344C21.078 18.3763 22.4406 19.7802 24.3212 19.7802C26.2019 19.7802 27.5579 18.3895 27.5579 16.1344Z" fill="white" style="fill:white;fill-opacity:1;"/>
<path d="M47.8555 8.66309L42.8108 23.6059H38.1785L33.1387 8.66309H37.6803L40.5128 18.1256L43.347 8.66309H47.8555Z" fill="white" style="fill:white;fill-opacity:1;"/>
<path d="M62.7901 8.66316V23.606H58.7038V22.2004C57.7949 23.3371 56.4685 24.0233 54.644 24.0233C51.0741 24.0233 48.1327 20.587 48.1327 16.1346C48.1327 11.6821 51.0741 8.24414 54.644 8.24414C56.4586 8.24414 57.8229 8.93206 58.7038 10.0588V8.66316H62.7901ZM58.7038 16.1346C58.7038 13.8926 57.3412 12.4888 55.4606 12.4888C53.5799 12.4888 52.219 13.8926 52.219 16.1346C52.219 18.3765 53.5816 19.7804 55.4606 19.7804C57.3396 19.7804 58.7038 18.3897 58.7038 16.1346Z" fill="white" style="fill:white;fill-opacity:1;"/>
<path d="M78.8547 14.4451V23.6058H74.7733V15.0885C74.7733 13.2342 73.711 12.3681 72.4028 12.3681C70.9048 12.3681 69.8688 13.325 69.8688 15.4465V23.6058H65.7826V8.66297H69.8688V10.0668C70.6046 8.96156 71.9672 8.2522 73.7654 8.2522C76.5171 8.2588 78.8547 10.41 78.8547 14.4451Z" fill="white" style="fill:white;fill-opacity:1;"/>
<path d="M80.9844 16.1345C80.9844 12.5877 83.1521 9.4797 86.2634 8.53443C89.3747 7.58916 92.6872 9.02933 94.3567 12.0697L90.7934 14.3479C90.287 13.269 89.2543 12.6157 88.1539 12.6735C86.5389 12.8632 85.3148 14.3594 85.3148 16.1378C85.3148 17.9162 86.5389 19.4141 88.1539 19.6021C89.2592 19.6681 90.2985 19.0115 90.7934 17.9294L94.3617 20.168C93.1112 22.5963 90.7571 24.081 88.2183 24.0381C87.2468 24.0568 86.2827 23.8651 85.3923 23.4761C84.5019 23.0872 83.7061 22.5101 83.0597 21.7847C81.6725 20.2349 80.9301 18.2137 80.9844 16.1345Z" fill="white" style="fill:white;fill-opacity:1;"/>
<path d="M100.083 8.67798H95.9965V23.6208H100.083V8.67798Z" fill="white" style="fill:white;fill-opacity:1;"/>
<path d="M116.157 14.4451V23.6058H112.071V15.0885C112.071 13.2342 111.009 12.3681 109.704 12.3681C108.206 12.3681 107.17 13.325 107.17 15.4465V23.6058H103.08V8.66297H107.166V10.0668C107.902 8.96156 109.265 8.2522 111.063 8.2522C113.815 8.2588 116.157 10.41 116.157 14.4451Z" fill="white" style="fill:white;fill-opacity:1;"/>
<path d="M132.941 8.66302V22.8585C132.941 27.8785 129.371 30 125.748 30C122.914 30 120.544 28.8353 119.292 26.3839L122.779 24.1733C123.295 25.2192 124.086 26.0556 125.884 26.0556C127.791 26.0556 128.964 24.98 128.964 22.8585V21.4827C128.513 22.1096 127.913 22.6149 127.218 22.9532C126.524 23.2915 125.757 23.4522 124.985 23.4211C121.116 23.4211 118.282 19.9386 118.282 15.8325C118.282 11.7265 121.115 8.244 124.983 8.244C125.755 8.21295 126.523 8.37428 127.218 8.71348C127.912 9.05268 128.512 9.55913 128.962 10.1873V8.66302H132.941ZM128.964 15.8325C128.964 13.7704 127.601 12.3468 125.664 12.3468C123.728 12.3468 122.365 13.7506 122.365 15.8325C122.365 17.9144 123.728 19.32 125.664 19.32C127.601 19.32 128.964 17.9111 128.964 15.8556V15.8325Z" fill="white" style="fill:white;fill-opacity:1;"/>
<path d="M98.6871 0.010498H137.598C138.311 0.0109354 138.995 0.294604 139.5 0.799148C140.004 1.30369 140.287 1.98781 140.287 2.70113C140.287 3.41429 140.004 4.09824 139.5 4.60252C138.995 5.1068 138.311 5.3901 137.598 5.3901H98.6871C97.9738 5.3901 97.2897 5.10685 96.7852 4.60262C96.2806 4.09839 95.997 3.41444 95.9965 2.70113V2.70113C95.9965 1.98753 96.28 1.30316 96.7846 0.798565C97.2892 0.293974 97.9735 0.010498 98.6871 0.010498V0.010498Z" fill="url(#paint0_linear_1_2120)" style=""/>
<path d="M135.384 2.6846C135.384 1.59747 135.981 0.617556 136.897 0.200187C137.345 -0.000398467 137.846 -0.0519189 138.326 0.0531923C138.806 0.158303 139.239 0.414506 139.563 0.784173C139.91 1.17781 140.143 1.65877 140.236 2.17512C140.33 2.69147 140.281 3.22359 140.094 3.714C139.715 4.72031 138.821 5.37523 137.829 5.37523C136.488 5.35874 135.399 4.16437 135.384 2.6846Z" fill="white" style="fill:white;fill-opacity:1;"/>
<defs>
<linearGradient id="paint0_linear_1_2120" x1="95.9965" y1="2.70113" x2="140.287" y2="2.70113" gradientUnits="userSpaceOnUse">
<stop stop-color="white" stop-opacity="0" style="stop-color:none;stop-opacity:0;"/>
<stop offset="0.5" stop-color="white" stop-opacity="0.5" style="stop-color:white;stop-opacity:0.5;"/>
<stop offset="1" stop-color="white" stop-opacity="0.8" style="stop-color:white;stop-opacity:0.8;"/>
</linearGradient>
</defs>
</svg>
